<svg width="24" height="22" viewBox="0 0 24 22" fill="none" xmlns="http://www.w3.org/2000/svg">
<path d="M1.19701 21.4738C1.07731 21.4738 0.957606 21.4439 0.837905 21.3541C0.628429 21.2045 0.538653 20.9352 0.628429 20.6658L2.63342 14.9501C0.927681 13.394 0 11.419 0 9.41397C0 4.50623 5.38653 0.526184 12 0.526184C18.6135 0.526184 24 4.50623 24 9.38404C24 14.2618 18.6135 18.2718 12 18.2718C10.2045 18.2718 8.40898 17.9726 6.79302 17.404L1.55611 21.3242C1.43641 21.414 1.31671 21.4738 1.19701 21.4738ZM12 1.72319C6.04489 1.72319 1.19701 5.16459 1.19701 9.38404C1.19701 11.1796 2.09476 12.9152 3.71072 14.2918C3.89027 14.4414 3.98005 14.7107 3.89027 14.9501L2.42394 19.1995L6.31421 16.2369C6.49377 16.1172 6.70324 16.0873 6.88279 16.1471C8.4389 16.7456 10.2045 17.0449 12 17.0449C17.9551 17.0449 22.803 13.6035 22.803 9.38404C22.803 5.16459 17.9551 1.72319 12 1.72319Z" fill="#396EF1"/>
</svg>
