<svg width="24" height="24" viewBox="0 0 24 24" fill="none" xmlns="http://www.w3.org/2000/svg">
<path d="M12 0C8.81774 0 5.76549 1.26429 3.51415 3.51415C1.26416 5.76521 0 8.81774 0 12C0 15.1823 1.26429 18.2345 3.51415 20.4859C5.76521 22.7358 8.81774 24 12 24C15.1823 24 18.2345 22.7357 20.4859 20.4859C22.7358 18.2348 24 15.1823 24 12C23.9968 8.81883 22.7314 5.7685 20.4815 3.51854C18.2315 1.26857 15.1812 0.00329143 12 0ZM16.8944 16.8944C16.5568 17.2254 16.0147 17.2254 15.6772 16.8944L11.6485 12.8571C11.3249 12.5378 11.1428 12.1029 11.1428 11.6486V4.28566C11.1428 3.81208 11.5263 3.42852 11.9999 3.42852C12.4735 3.42852 12.8571 3.81208 12.8571 4.28566V11.6486L16.8943 15.6773C17.2286 16.0137 17.2287 16.5579 16.8944 16.8944Z" fill="#396EF1"/>
</svg>
