<svg width="28" height="28" viewBox="0 0 28 28" fill="none" xmlns="http://www.w3.org/2000/svg">
<path fill-rule="evenodd" clip-rule="evenodd" d="M3 11.127C2.314 11.304 1.681 11.662 1.172 12.172C0.421 12.922 0 13.939 0 15C0 15.965 0 17.035 0 18C0 19.061 0.421 20.078 1.172 20.828C1.922 21.579 2.939 22 4 22H5C5.53 22 6.039 21.789 6.414 21.414C6.789 21.039 7 20.53 7 20C7 18.268 7 14.732 7 13C7 12.47 6.789 11.961 6.414 11.586C6.039 11.211 5.531 11 5 11V9.94699C5.033 5.52499 9.08 2 14 2C18.94 2 23 5.554 23 10V11C22.47 11 21.961 11.211 21.586 11.586C21.211 11.961 21 12.47 21 13C21 14.732 21 18.268 21 20C21 20.53 21.211 21.039 21.586 21.414C21.859 21.687 22.202 21.873 22.573 21.954C22.241 22.665 21.831 23.215 21.252 23.564C20.862 23.799 20.4 23.934 19.85 23.977C19.429 22.825 18.319 22 17.015 22C15.349 22 14 23.346 14 25C14 26.654 15.349 28 17.015 28C18.336 28 19.457 27.154 19.865 25.98C20.832 25.923 21.622 25.676 22.284 25.277C23.393 24.608 24.164 23.484 24.738 21.931C25.525 21.784 26.255 21.402 26.828 20.828C27.579 20.078 28 19.061 28 18C28 17.035 28 15.965 28 15C28 13.939 27.579 12.922 26.828 12.172C26.319 11.662 25.686 11.304 25 11.127V10C25 4.511 20.099 0 14 0C7.926 0 3.039 4.476 3 9.935V11.127ZM18.013 24.818C17.926 24.351 17.51 24 17.015 24C16.457 24 16 24.446 16 25C16 25.554 16.457 26 17.015 26C17.517 26 17.938 25.639 18.017 25.163C18.002 25.086 17.997 25.005 18.002 24.924C18.004 24.888 18.008 24.852 18.013 24.818ZM24.014 20C24.539 19.996 25.042 19.786 25.414 19.414C25.789 19.039 26 18.53 26 18V15C26 14.47 25.789 13.961 25.414 13.586C25.039 13.211 24.53 13 24 13H23V20H23.981H24.004H24.014ZM5 13V20H4C3.47 20 2.961 19.789 2.586 19.414C2.211 19.039 2 18.53 2 18V15C2 14.47 2.211 13.961 2.586 13.586C2.961 13.211 3.47 13 4 13H5Z" fill="#396EF1"/>
</svg>
